<svg xmlns="http://www.w3.org/2000/svg" width="320" height="180" viewBox="0 0 320 180" shape-rendering="crispEdges">
  <rect width="320" height="180" fill="#06090d"/>

  <!-- star field -->
  <g fill="#b8d8e8">
    <rect x="14" y="10" width="2" height="2"/>
    <rect x="38" y="26" width="2" height="2"/>
    <rect x="72" y="14" width="2" height="2"/>
    <rect x="106" y="30" width="2" height="2"/>
    <rect x="138" y="18" width="2" height="2"/>
    <rect x="170" y="26" width="2" height="2"/>
    <rect x="208" y="14" width="2" height="2"/>
    <rect x="236" y="28" width="2" height="2"/>
    <rect x="270" y="16" width="2" height="2"/>
    <rect x="302" y="24" width="2" height="2"/>
    <rect x="24" y="58" width="2" height="2"/>
    <rect x="60" y="72" width="2" height="2"/>
    <rect x="118" y="62" width="2" height="2"/>
    <rect x="156" y="70" width="2" height="2"/>
    <rect x="194" y="64" width="2" height="2"/>
    <rect x="248" y="76" width="2" height="2"/>
    <rect x="286" y="62" width="2" height="2"/>
  </g>

  <!-- distant ringed planet -->
  <ellipse cx="252" cy="94" rx="48" ry="14" fill="#2d4f6a"/>
  <circle cx="252" cy="94" r="30" fill="#496e8b"/>
  <circle cx="252" cy="94" r="19" fill="#678daa"/>
  <ellipse cx="252" cy="99" rx="38" ry="11" fill="#203647"/>

  <!-- black hole glow -->
  <circle cx="92" cy="76" r="22" fill="#1a2a39"/>
  <circle cx="92" cy="76" r="15" fill="#2b4b69"/>
  <circle cx="92" cy="76" r="8" fill="#06090d"/>
  <circle cx="92" cy="76" r="30" fill="none" stroke="#6ab4dc" stroke-opacity=".3" stroke-width="2"/>

  <!-- endurance-inspired station silhouette -->
  <g fill="#88a9ba">
    <rect x="154" y="74" width="4" height="4"/>
    <rect x="160" y="70" width="4" height="4"/>
    <rect x="166" y="74" width="4" height="4"/>
    <rect x="160" y="78" width="4" height="4"/>
    <rect x="148" y="84" width="4" height="4"/>
    <rect x="154" y="90" width="4" height="4"/>
    <rect x="166" y="90" width="4" height="4"/>
    <rect x="172" y="84" width="4" height="4"/>
  </g>

  <!-- ranger-like craft -->
  <g fill="#d8e8f0">
    <rect x="122" y="118" width="4" height="4"/>
    <rect x="126" y="114" width="4" height="4"/>
    <rect x="130" y="114" width="4" height="4"/>
    <rect x="134" y="118" width="4" height="4"/>
    <rect x="128" y="122" width="4" height="4"/>
  </g>
  <rect x="118" y="118" width="2" height="2" fill="#ff944d"/>

  <!-- minimal horizon -->
  <rect x="0" y="146" width="320" height="34" fill="#0a1117"/>
  <rect x="0" y="146" width="320" height="2" fill="#29495f"/>

  <!-- title strip -->
  <rect x="0" y="0" width="320" height="18" fill="#070e14"/>
  <rect x="0" y="17" width="320" height="1" fill="#29495f"/>
  <text x="10" y="13" font-family="Courier New, monospace" font-size="10" fill="#9ecad8" letter-spacing="1.2">ENDURANCE // INTERSTELLAR</text>
</svg>
